<?xml version="1.0" standalone="no"?>
<!DOCTYPE svg PUBLIC "-//W3C//DTD SVG 20010904//EN"
 "http://www.w3.org/TR/2001/REC-SVG-20010904/DTD/svg10.dtd">
<svg version="1.0" xmlns="http://www.w3.org/2000/svg"
 width="300.000000pt" height="300.000000pt" viewBox="0 0 300.000000 300.000000"
 preserveAspectRatio="xMidYMid meet">
<metadata>
Created by potrace 1.10, written by Peter Selinger 2001-2011
</metadata>
<g transform="translate(0.000000,300.000000) scale(0.100000,-0.100000)"
fill="#000000" stroke="none">
<path d="M1444 2271 c-47 -22 -91 -73 -100 -119 -13 -64 3 -99 83 -183 l76
-80 55 53 c86 84 112 124 112 175 0 51 -16 87 -57 125 -53 50 -103 59 -169 29z
m132 -40 c57 -34 81 -121 48 -171 -23 -34 -85 -100 -105 -111 -31 -16 -149
115 -149 165 0 34 41 106 68 121 38 20 101 18 138 -4z"/>
<path d="M1203 2009 c-41 -12 -90 -61 -98 -99 -4 -16 -2 -45 4 -63 15 -43 325
-353 364 -362 64 -16 85 -3 259 173 91 92 169 178 173 190 12 40 -4 90 -41
127 -31 31 -41 35 -86 35 l-51 0 -106 -106 c-58 -58 -95 -100 -81 -94 14 7 55
43 92 80 83 85 105 100 142 100 66 0 128 -73 112 -133 -3 -12 -49 -67 -103
-122 -54 -55 -108 -114 -120 -130 l-22 -30 -1 27 c0 50 -18 74 -161 222 -185
191 -205 205 -276 185z m74 -36 c36 -21 213 -189 213 -203 0 -6 6 -10 13 -10
14 0 73 -59 101 -100 24 -37 20 -66 -17 -106 -23 -26 -43 -37 -73 -41 -38 -5
-44 -2 -92 45 -29 28 -52 49 -52 48 0 -2 -54 52 -120 119 -128 131 -136 146
-106 204 14 25 66 60 91 61 6 0 25 -8 42 -17z"/>
<path d="M2033 1455 c-11 -8 -23 -23 -26 -35 -6 -25 28 -70 54 -70 24 0 59 34
59 58 0 43 -52 72 -87 47z"/>
<path d="M210 1395 c0 -31 3 -35 28 -35 25 0 29 -6 50 -78 13 -42 45 -137 70
-209 l47 -133 66 0 67 0 52 163 c29 89 58 182 65 207 9 38 15 46 38 48 23 3
27 8 27 38 l0 34 -95 0 -95 0 0 -35 c0 -31 3 -35 26 -35 23 0 25 -3 19 -27
-14 -62 -100 -323 -105 -323 -3 0 -30 78 -61 173 l-55 172 28 3 c25 3 28 7 28
38 l0 34 -100 0 -100 0 0 -35z m130 -14 c0 -5 -7 -14 -16 -22 -13 -10 -17 -10
-25 2 -14 23 -11 29 16 29 14 0 25 -4 25 -9z m300 -12 c-9 -16 -14 -18 -26 -9
-17 15 -9 30 17 30 17 0 18 -3 9 -21z"/>
<path d="M825 1220 c-68 -206 -70 -210 -97 -210 -25 0 -28 -3 -28 -35 l0 -35
101 0 100 0 -3 33 c-2 25 -8 32 -25 32 -26 1 -27 7 -12 53 l11 32 83 0 83 0
11 -31 c16 -46 14 -58 -9 -52 -17 5 -20 0 -20 -31 l0 -36 95 0 95 0 0 34 c0
30 -4 35 -27 38 -26 3 -30 12 -90 198 -34 107 -63 201 -63 208 0 8 -20 12 -68
12 l-68 0 -69 -210z m177 145 c6 -14 8 -28 3 -33 -4 -4 -10 -1 -12 6 -3 7 -14
17 -25 23 -15 8 -24 7 -39 -7 -15 -14 -19 -14 -19 -3 0 44 73 55 92 14z m-32
-40 c0 -8 11 -48 24 -90 l24 -75 -63 0 -63 0 24 75 c13 42 24 82 24 90 0 8 7
15 15 15 8 0 15 -7 15 -15z m114 -212 c9 -28 -1 -29 -32 -3 -22 18 -23 22 -10
50 l13 31 11 -28 c6 -15 15 -38 18 -50z m-204 23 c0 -6 -12 -19 -25 -29 -29
-20 -33 -9 -15 38 9 23 13 25 25 15 8 -7 15 -18 15 -24z m241 -123 c12 -31 5
-43 -22 -36 -14 4 -18 11 -13 22 4 9 6 24 6 34 -1 23 17 11 29 -20z m-291 -25
c0 -4 -11 -8 -25 -8 -29 0 -30 3 -12 30 11 19 13 19 25 3 6 -9 12 -20 12 -25z"/>
<path d="M2610 1345 c0 -44 -1 -45 -31 -45 -28 0 -30 -2 -27 -32 3 -29 6 -33
30 -30 l26 3 4 -131 c3 -130 3 -132 31 -156 22 -19 39 -24 80 -24 69 0 82 9
69 46 -5 17 -15 27 -23 25 -8 -2 -21 -5 -30 -8 -9 -3 -23 3 -33 12 -13 13 -16
38 -16 126 l0 111 43 -4 c41 -3 42 -2 45 30 3 32 3 32 -42 32 l-46 0 0 45 0
45 -40 0 -40 0 0 -45z m64 -68 c16 -25 -16 -56 -38 -37 -19 15 -20 32 -4 48
15 15 28 11 42 -11z"/>
<path d="M1318 1294 c-36 -19 -48 -43 -48 -94 0 -51 30 -84 91 -99 91 -23 94
-24 97 -59 3 -26 -1 -34 -23 -44 -38 -17 -99 0 -103 30 -3 18 -10 22 -38 22
-33 0 -34 -1 -34 -40 0 -34 4 -42 32 -56 42 -22 136 -29 182 -14 48 15 66 44
66 103 0 63 -27 91 -106 108 -69 15 -84 24 -84 53 0 30 18 46 51 46 43 0 59
-10 59 -36 0 -21 5 -24 35 -24 35 0 35 0 35 44 0 42 -2 45 -40 60 -50 20 -136
20 -172 0z"/>
<path d="M1675 1301 c-39 -17 -60 -51 -60 -96 0 -59 30 -90 103 -106 72 -17
97 -37 88 -72 -7 -31 -39 -42 -91 -33 -29 6 -35 11 -35 31 0 22 -5 25 -35 25
-34 0 -35 -1 -35 -41 0 -38 2 -41 46 -61 36 -16 61 -19 112 -16 58 4 68 8 93
36 31 35 38 82 18 126 -12 25 -60 50 -119 62 -44 8 -60 21 -60 48 0 30 18 46
51 46 43 0 59 -10 59 -36 0 -21 5 -24 35 -24 34 0 35 1 35 40 0 32 -5 43 -27
57 -29 20 -145 29 -178 14z"/>
<path d="M2284 1294 c-51 -25 -68 -87 -39 -143 15 -30 43 -45 115 -60 40 -9
70 -31 70 -53 0 -17 -41 -48 -62 -48 -47 0 -68 12 -68 36 0 21 -5 24 -35 24
-35 0 -35 0 -35 -44 0 -44 1 -44 47 -60 136 -46 249 12 229 117 -9 47 -34 66
-113 88 -83 23 -103 48 -67 83 31 32 107 13 97 -24 -5 -17 0 -20 29 -20 19 0
37 2 39 4 3 3 3 23 1 45 -4 35 -8 41 -43 55 -50 20 -125 20 -165 0z"/>
<path d="M1964 1286 c-11 -30 0 -50 29 -51 l28 0 2 -118 2 -117 -37 0 c-36 0
-38 -2 -38 -30 l0 -30 110 0 110 0 0 30 c0 27 -3 30 -32 30 l-33 0 3 150 4
150 -71 0 c-53 0 -73 -4 -77 -14z"/>
<path d="M541 788 c1 -29 4 -43 6 -30 5 27 19 28 33 2 6 -11 15 -20 21 -20 6
0 6 7 -1 20 -7 13 -7 26 -1 38 13 24 -4 42 -36 42 -21 0 -23 -4 -22 -52z m45
31 c10 -17 -13 -36 -27 -22 -12 12 -4 33 11 33 5 0 12 -5 16 -11z"/>
<path d="M620 790 l0 -50 45 0 c33 0 45 4 45 15 0 8 9 15 20 15 11 0 20 -7 20
-15 0 -8 5 -15 10 -15 13 0 13 -2 -6 53 -17 49 -31 59 -40 30 -20 -63 -27 -73
-50 -73 -32 0 -33 37 -1 43 l22 4 -22 2 c-13 0 -23 7 -23 15 0 9 7 12 20 9 11
-3 20 0 20 6 0 6 -13 11 -30 11 -29 0 -30 -1 -30 -50z"/>
<path d="M780 790 c0 -46 2 -50 23 -50 30 0 47 18 47 50 0 32 -17 50 -47 50
-21 0 -23 -4 -23 -50z m54 14 c7 -19 -2 -41 -20 -48 -11 -4 -14 4 -14 34 0 30
3 38 14 34 8 -3 17 -12 20 -20z"/>
<path d="M866 825 c4 -11 9 -35 12 -52 5 -36 22 -45 22 -13 0 12 7 34 15 50
10 20 12 30 4 30 -6 0 -13 -10 -16 -21 -6 -21 -6 -21 -25 2 -17 20 -19 21 -12
4z"/>
<path d="M960 830 c0 -5 7 -10 15 -10 11 0 15 -11 15 -40 0 -22 4 -40 9 -40 6
0 7 16 4 36 -5 29 -2 40 12 50 17 13 15 14 -18 14 -20 0 -37 -4 -37 -10z"/>
<path d="M1051 826 c-31 -37 9 -103 47 -80 36 23 23 94 -18 94 -10 0 -23 -6
-29 -14z m44 -36 c0 -39 -19 -50 -35 -21 -8 15 -8 27 0 42 16 29 35 18 35 -21z"/>
<path d="M1180 815 c-19 -49 -22 -75 -11 -75 6 0 11 7 11 15 0 8 9 15 20 15
11 0 20 -6 20 -14 0 -10 12 -13 43 -12 34 1 43 5 45 22 2 14 -5 24 -23 32 -30
14 -24 36 7 26 14 -4 18 -2 14 5 -11 17 -46 13 -53 -6 -4 -11 3 -24 21 -38 31
-25 25 -36 -15 -28 -20 4 -29 14 -38 44 -14 45 -27 50 -41 14z"/>
<path d="M1326 825 c-5 -15 18 -45 36 -45 5 0 8 -6 5 -12 -2 -7 -14 -12 -27
-10 -14 2 -20 0 -16 -7 11 -17 56 -13 63 6 4 11 -3 23 -21 38 -26 21 -27 38 0
28 8 -3 14 0 14 6 0 16 -47 13 -54 -4z"/>
<path d="M1400 790 c0 -27 5 -50 10 -50 6 0 10 23 10 50 0 28 -4 50 -10 50 -5
0 -10 -22 -10 -50z"/>
<path d="M1443 824 c-6 -16 13 -38 40 -47 6 -2 7 -9 3 -15 -4 -7 -16 -10 -27
-7 -11 4 -19 2 -19 -4 0 -16 46 -13 60 4 10 12 10 18 0 30 -7 8 -19 15 -26 15
-8 0 -14 7 -14 16 0 11 6 14 20 9 11 -4 20 -2 20 4 0 18 -50 13 -57 -5z"/>
<path d="M1523 826 c11 -8 17 -27 17 -50 0 -20 5 -36 10 -36 6 0 10 18 10 40
0 22 5 40 10 40 6 0 10 5 10 10 0 6 -17 10 -37 10 -34 -1 -36 -2 -20 -14z"/>
<path d="M1625 810 c8 -16 15 -38 15 -50 0 -11 5 -20 10 -20 6 0 10 9 10 21 0
11 5 29 11 40 6 11 8 25 5 32 -2 7 -8 2 -11 -10 -9 -28 -21 -29 -28 -3 -3 11
-10 20 -16 20 -8 0 -6 -10 4 -30z"/>
<path d="M1702 828 c-17 -17 -15 -63 3 -78 9 -7 25 -10 40 -6 24 6 26 11 23
49 -3 36 -6 42 -28 45 -14 2 -31 -3 -38 -10z m52 -21 c8 -12 8 -22 0 -34 -16
-25 -38 -22 -42 5 -7 50 18 67 42 29z"/>
<path d="M1790 802 c0 -42 14 -62 42 -62 20 0 23 6 33 63 4 23 2 37 -5 37 -5
0 -10 -15 -10 -32 0 -18 -4 -39 -9 -47 -15 -23 -31 -2 -31 40 0 21 -4 39 -10
39 -5 0 -10 -17 -10 -38z"/>
<path d="M1918 790 c-9 -27 -13 -50 -8 -50 4 0 10 7 14 15 7 20 32 19 40 -1 4
-9 9 -15 12 -12 8 9 -20 98 -31 98 -6 0 -18 -22 -27 -50z"/>
<path d="M1995 790 c0 -27 3 -50 8 -50 4 0 7 17 7 38 l1 37 20 -37 c11 -21 24
-38 29 -38 6 0 10 23 10 50 0 54 -20 71 -21 18 l0 -33 -16 33 c-24 47 -38 40
-38 -18z"/>
<path d="M2085 823 c4 -10 13 -32 19 -49 l12 -32 10 32 c6 17 14 39 19 49 4
10 3 17 -3 17 -6 0 -14 -10 -18 -22 l-7 -23 -10 23 c-12 26 -33 31 -22 5z"/>
<path d="M2180 830 c0 -5 7 -10 15 -10 11 0 15 -11 15 -40 0 -22 5 -40 10 -40
6 0 10 18 10 40 0 22 5 40 10 40 6 0 10 5 10 10 0 6 -16 10 -35 10 -19 0 -35
-4 -35 -10z"/>
<path d="M2270 790 c0 -27 5 -50 10 -50 6 0 10 23 10 50 0 28 -4 50 -10 50 -5
0 -10 -22 -10 -50z"/>
<path d="M2311 788 c2 -49 2 -50 9 -18 l6 35 8 -27 c5 -16 12 -28 16 -28 4 0
11 12 16 28 l8 27 6 -35 c7 -32 7 -31 9 18 1 59 -11 68 -29 20 l-13 -33 -10
33 c-15 48 -27 39 -26 -20z"/>
<path d="M2412 790 l0 -50 35 0 c19 0 32 4 29 9 -3 5 -15 7 -26 4 -15 -4 -20
0 -20 15 0 13 8 22 23 25 l22 4 -23 2 c-14 0 -22 6 -19 14 2 6 11 11 20 9 8
-1 18 2 22 8 4 6 -7 10 -28 10 l-35 0 0 -50z"/>
<path d="M747 613 c414 -2 1092 -2 1505 0 414 1 76 2 -752 2 -828 0 -1166 -1
-753 -2z"/>
</g>
</svg>
